<svg width="50" height="50" viewBox="0 0 50 50" fill="none" xmlns="http://www.w3.org/2000/svg">
<path d="M24.8207 0.00154877C21.0215 0.0778694 17.7864 2.63714 16.6009 6.12674C16.6052 6.11391 16.6081 6.1008 16.6124 6.08794C15.9794 5.83812 15.3013 5.69848 14.6041 5.69848H5.69818V14.6045C5.69818 15.3043 5.83873 15.9849 6.09056 16.6199C6.09489 16.6185 6.09923 16.6174 6.10356 16.616C4.77258 17.0747 3.54552 17.836 2.54684 18.854C0.859955 20.5709 -0.0436875 22.8117 0.00162501 25.1702C0.0759009 28.9967 2.61685 32.2519 6.07452 33.422C5.83298 34.0458 5.69818 34.7122 5.69818 35.3967V44.3025H14.6041C15.2854 44.3025 15.949 44.169 16.57 43.9295C16.5664 43.9186 16.5639 43.907 16.5603 43.8962C16.9891 45.2016 17.7188 46.3983 18.7184 47.3959C20.393 49.0766 22.6251 50.0016 24.9984 50.0016C25.0588 50.0016 25.1189 49.9987 25.1791 49.9987C28.9644 49.9247 32.1919 47.3847 33.389 43.9136C34.0218 44.1633 34.6994 44.3025 35.3963 44.3025H44.3022V35.3967C44.3022 34.6972 44.1617 34.0169 43.91 33.3819C45.2357 32.9221 46.4574 32.1612 47.4532 31.146C49.1399 29.4292 50.0435 27.1883 49.9984 24.8299C49.9239 20.9977 47.372 17.737 43.9046 16.5736C43.9114 16.5759 43.9187 16.5774 43.9255 16.5798C44.1672 15.9559 44.3022 15.2893 44.3022 14.6045V5.69848H35.3963C34.7149 5.69848 34.0518 5.83203 33.4307 6.07117C32.9999 4.77853 32.2738 3.59455 31.2845 2.60701C29.6048 0.924248 27.3815 3.43323e-05 24.9915 0C24.9346 0 24.8778 0.000492096 24.8207 0.00154877ZM3.01068 25.116C2.98341 23.5739 3.58286 22.0979 4.69429 20.9653C5.842 19.7968 7.42928 19.128 9.05268 19.128H14.5827C17.0889 19.128 19.1281 17.0889 19.1281 14.5829V9.05281C19.1281 5.78474 21.7094 3.07698 24.881 3.0136H24.9984C26.5707 3.0136 28.0436 3.62215 29.152 4.7366C30.2635 5.8419 30.875 7.31483 30.875 8.88724V15.2125H33.8869V9.22688C34.3168 8.89461 34.8457 8.71036 35.3963 8.71036H41.2901V14.6045C41.2901 15.1554 41.1057 15.6849 40.7731 16.115H41.1145C41.135 16.115 41.1548 16.1173 41.175 16.1175C41.1554 16.1175 41.1357 16.1161 41.1158 16.1161H34.7907H33.8869H30.875H29.9714H26.6582C20.8449 16.1161 16.116 20.845 16.116 26.6582V29.9714H19.1281V26.6582C19.1281 22.5047 22.5045 19.128 26.6582 19.128H29.9714H30.875H33.8869H34.7907H41.1158C44.2906 19.128 46.926 21.7124 46.9894 24.887C47.0164 26.4292 46.42 27.9022 45.3055 29.0347C44.158 30.2033 42.5707 30.875 40.9502 30.875H35.4171C32.9112 30.875 30.875 32.9111 30.875 35.4172V40.9471C30.875 44.2152 28.2937 46.9233 25.1189 46.9864L24.9984 46.9896C23.4293 46.9896 21.9563 46.3777 20.8478 45.2665C19.7364 44.1581 19.1281 42.6853 19.1281 41.1159V34.7906H16.116V41.1159C16.116 41.142 16.1177 41.1681 16.1179 41.194C16.1176 41.1675 16.1147 41.1417 16.1147 41.1149V40.7732C15.6847 41.1058 15.155 41.2905 14.6041 41.2905H8.71008V35.3967C8.71008 34.8462 8.8945 34.317 9.22677 33.8871H15.2124H16.116H19.1281H20.0317H23.3448C29.1551 33.8871 33.8869 29.1581 33.8869 23.345V20.0317H30.875V23.345C30.875 27.4956 27.4954 30.875 23.3448 30.875H20.0317H19.1281H16.116H15.2124H8.88707C5.70938 30.875 3.07378 28.2908 3.01068 25.116ZM9.05144 16.115H9.22695C8.89451 15.6849 8.71008 15.1559 8.71008 14.6045V8.71036H14.6041C15.1553 8.71036 15.6847 8.89461 16.1147 9.22723V9.05316C16.1147 9.02839 16.1174 9.0043 16.1178 8.97953C16.1174 9.00412 16.116 9.02821 16.116 9.05281V14.5829C16.116 15.4293 15.4292 16.1161 14.5827 16.1161H9.05268C9.0314 16.1161 9.01015 16.1175 8.98883 16.1178C9.00973 16.1174 9.03034 16.115 9.05144 16.115ZM33.8869 40.7747V35.4172C33.8869 34.5738 34.5737 33.8871 35.4171 33.8871H40.7738C41.106 34.317 41.2901 34.846 41.2901 35.3967V41.2905H35.3963C34.8454 41.2905 34.3167 41.1066 33.8869 40.7747Z" fill="url(#paint0_linear_1_376)"/>
<defs>
<linearGradient id="paint0_linear_1_376" x1="50" y1="20.1272" x2="6.02412e-07" y2="20.1272" gradientUnits="userSpaceOnUse">
<stop stop-color="#007D6E"/>
<stop offset="1" stop-color="#5EB47C"/>
</linearGradient>
</defs>
</svg>
